HIERARCHY
ROOT Hips
{
	OFFSET 0.000000 0.000000 0.000000
	CHANNELS 6 Xposition Yposition Zposition Xrotation Yrotation Zrotation
	JOINT LeftUpLeg_virtual
	{
		OFFSET 0.000000 0.000000 0.000000
		CHANNELS 3 Xrotation Yrotation Zrotation
		JOINT LeftUpLeg
		{
			OFFSET 11.394100 -6.187798 -0.413800
			CHANNELS 3 Xrotation Yrotation Zrotation
			JOINT LeftLeg
			{
				OFFSET 0.430247 -32.302673 3.732800
				CHANNELS 3 Xrotation Yrotation Zrotation
				JOINT LeftFoot
				{
					OFFSET -0.430247 -48.264931 -6.423300
					CHANNELS 3 Xrotation Yrotation Zrotation
					JOINT LeftToeBase
					{
						OFFSET 4.230900 -16.068199 23.438400
						CHANNELS 3 Xrotation Yrotation Zrotation
						JOINT LeftToe_End
						{
							OFFSET 4.510700 0.695400 19.974600
							CHANNELS 3 Xrotation Yrotation Zrotation
							End Site
							{
								OFFSET 0 0 0
							}
						}
					}
				}
			}
		}
	}
	JOINT RightUpLeg_virtual
	{
		OFFSET 0.000000 0.000000 0.000000
		CHANNELS 3 Xrotation Yrotation Zrotation
		JOINT RightUpLeg
		{
			OFFSET -11.333700 -6.187798 -0.413800
			CHANNELS 3 Xrotation Yrotation Zrotation
			JOINT RightLeg
			{
				OFFSET -0.430392 -32.302628 3.733000
				CHANNELS 3 Xrotation Yrotation Zrotation
				JOINT RightFoot
				{
					OFFSET 0.430392 -48.264973 -6.423500
					CHANNELS 3 Xrotation Yrotation Zrotation
					JOINT RightToeBase
					{
						OFFSET -4.230900 -16.068199 23.438400
						CHANNELS 3 Xrotation Yrotation Zrotation
						JOINT RightToe_End
						{
							OFFSET -4.510700 0.695400 19.974600
							CHANNELS 3 Xrotation Yrotation Zrotation
							End Site
							{
								OFFSET 0 0 0
							}
						}
					}
				}
			}
		}
	}
	JOINT Spine_virtual
	{
		OFFSET 0.000000 0.000000 0.000000
		CHANNELS 3 Xrotation Yrotation Zrotation
		JOINT Spine
		{
			OFFSET -0.002400 12.777504 0.315300
			CHANNELS 3 Xrotation Yrotation Zrotation
			JOINT Spine1
			{
				OFFSET -0.002067 5.816869 0.032633
				CHANNELS 3 Xrotation Yrotation Zrotation
				JOINT Spine1_split
				{
					OFFSET -0.002067 5.816869 0.032633
					CHANNELS 3 Xrotation Yrotation Zrotation
					JOINT Spine2
					{
						OFFSET -0.002067 5.816869 0.032633
						CHANNELS 3 Xrotation Yrotation Zrotation
						JOINT Neck_virtual
						{
							OFFSET 0.000000 0.000000 0.000000
							CHANNELS 3 Xrotation Yrotation Zrotation
							JOINT Neck
							{
								OFFSET -0.003700 21.199493 -0.826900
								CHANNELS 3 Xrotation Yrotation Zrotation
								JOINT Head
								{
									OFFSET 0.000000 20.442200 4.834800
									CHANNELS 3 Xrotation Yrotation Zrotation
									JOINT HeadTop_End
									{
										OFFSET 0.000000 34.668396 4.968400
										CHANNELS 3 Xrotation Yrotation Zrotation
										End Site
										{
											OFFSET 0 0 0
										}
									}
								}
							}
						}
						JOINT LeftShoulder_virtual
						{
							OFFSET 0.000000 0.000000 0.000000
							CHANNELS 3 Xrotation Yrotation Zrotation
							JOINT LeftShoulder
							{
								OFFSET 3.288150 8.794197 -1.372250
								CHANNELS 3 Xrotation Yrotation Zrotation
								JOINT LeftShoulder_split
								{
									OFFSET 3.288150 8.794197 -1.372250
									CHANNELS 3 Xrotation Yrotation Zrotation
									JOINT LeftArm
									{
										OFFSET 11.953299 -2.279007 -0.146200
										CHANNELS 3 Xrotation Yrotation Zrotation
										JOINT LeftForeArm
										{
											OFFSET 18.448900 0.000000 0.000000
											CHANNELS 3 Xrotation Yrotation Zrotation
											JOINT LeftHand
											{
												OFFSET 29.527798 0.000000 0.000000
												CHANNELS 3 Xrotation Yrotation Zrotation
												End Site
												{
													OFFSET 0 0 0
												}
											}
										}
									}
								}
							}
						}
						JOINT RightShoulder_virtual
						{
							OFFSET 0.000000 0.000000 0.000000
							CHANNELS 3 Xrotation Yrotation Zrotation
							JOINT RightShoulder
							{
								OFFSET -3.249400 8.794197 -1.372250
								CHANNELS 3 Xrotation Yrotation Zrotation
								JOINT RightShoulder_split
								{
									OFFSET -3.249400 8.794197 -1.372250
									CHANNELS 3 Xrotation Yrotation Zrotation
									JOINT RightArm
									{
										OFFSET -11.953299 -2.279007 -0.146200
										CHANNELS 3 Xrotation Yrotation Zrotation
										JOINT RightForeArm
										{
											OFFSET -18.448900 0.000000 0.000000
											CHANNELS 3 Xrotation Yrotation Zrotation
											JOINT RightHand
											{
												OFFSET -29.527802 0.000000 0.000000
												CHANNELS 3 Xrotation Yrotation Zrotation
												End Site
												{
													OFFSET 0 0 0
												}
											}
										}
									}
								}
							}
						}
					}
				}
			}
		}
	}
}
MOTION
Frames: 6
Frame Time: 0.03333333
53.132225 92.972832 28.404997 0.000000 0.000000 0.000000 -17.699264 -58.271308 -16.468705 -19.462778 6.534804 5.404016 44.053924 -7.818600 3.316468 -19.963400 14.650990 5.521144 -3.545213 -0.331768 0.498400 0.000000 0.000000 0.000000 -14.474467 -55.494344 -14.262973 -11.486629 18.066516 -11.940457 42.256284 -6.253260 -10.449163 26.190504 6.115571 24.647460 -29.326732 -3.104058 11.448347 0.000000 0.000000 0.000000 -15.644429 -56.540750 -14.535478 10.665742 7.740168 -0.361018 4.146913 13.885025 -1.475553 1.315977 -3.509873 0.765071 0.000000 0.000000 0.000000 2.959327 13.726665 -2.009360 -3.860790 -2.268646 -0.024228 3.277178 -39.740639 4.266526 0.000000 0.000000 0.000000 3.638298 13.319441 -2.039474 -5.265534 -18.654001 -26.571948 -3.175599 3.396207 -8.261615 -22.059435 23.238575 -41.719205 -2.742485 -37.717766 -2.470019 0.000000 0.000000 0.000000 1.071237 13.485506 -1.700045 18.841886 -23.237945 22.496932 1.133430 2.742543 0.624173 18.806615 -20.141395 41.536959 179.864480 68.818172 178.468048 0.000000 0.000000 0.000000 
52.806286 92.607834 30.852188 0.000000 0.000000 0.000000 -18.013801 -55.991039 -16.395662 -17.671231 6.727802 4.112821 44.268095 -8.167066 3.156299 -22.079193 12.830002 7.312909 -3.873741 -0.157017 0.629375 0.000000 0.000000 0.000000 -14.695289 -52.935428 -13.988708 -17.068218 19.531483 -8.780151 50.463982 -6.154712 -10.112650 20.868863 9.196498 22.198017 -20.668948 -1.000672 9.130417 0.000000 0.000000 0.000000 -15.996390 -54.241585 -14.020251 11.051083 5.475773 -0.675978 4.373008 13.604996 -1.471898 1.216370 -3.563058 0.650470 0.000000 0.000000 0.000000 3.107837 13.513497 -2.005376 -3.764762 -2.293130 0.265865 4.058735 -40.432473 4.742879 0.000000 0.000000 0.000000 3.747182 13.131121 -2.033398 -5.694938 -20.115315 -26.811940 -2.767221 3.431528 -8.217931 -22.764250 20.694602 -41.416491 -2.541554 -38.992262 -2.252796 0.000000 0.000000 0.000000 1.288095 13.308259 -1.756998 18.958040 -23.703321 22.969551 0.830751 2.609660 0.654671 20.035180 -22.835337 43.081432 -179.969679 68.720712 178.190524 0.000000 0.000000 0.000000 
52.466587 92.540802 33.298218 0.000000 0.000000 0.000000 -17.341348 -53.603676 -15.720910 -15.469132 7.050719 3.157485 43.203405 -8.841262 2.785584 -23.948042 10.220663 8.708232 -4.528786 -0.051703 1.053815 0.000000 0.000000 0.000000 -14.492861 -50.248110 -13.497281 -23.170846 19.828995 -5.063034 57.393028 -5.810113 -9.098595 14.776124 12.250936 20.139817 -11.483914 1.294292 4.994286 0.000000 0.000000 0.000000 -15.372102 -51.876462 -13.030825 11.450067 3.202943 -0.748541 4.507511 13.219435 -1.449223 1.082977 -3.788073 0.674985 0.000000 0.000000 0.000000 3.179420 13.186775 -1.942285 -3.762510 -2.257512 0.688363 4.792395 -40.995608 5.241498 0.000000 0.000000 0.000000 3.762292 12.833010 -2.019220 -6.128865 -21.862805 -26.811522 -2.435978 3.588220 -8.211743 -23.400954 18.036793 -41.286472 -2.245518 -40.324464 -1.994176 0.000000 0.000000 0.000000 1.412132 13.009980 -1.800654 19.021892 -23.918423 23.521206 0.605557 2.557303 0.653252 20.185338 -24.659758 43.769088 -179.608061 69.465551 177.779511 0.000000 0.000000 0.000000 
52.131847 92.792442 35.803169 0.000000 0.000000 0.000000 -15.857128 -51.193016 -14.568701 -12.920686 7.262070 2.580599 41.135128 -9.777990 2.101551 -24.886814 7.168313 9.590846 -5.469687 -0.026627 1.816022 0.000000 0.000000 0.000000 -13.892167 -47.764654 -12.878035 -28.843551 19.394554 -1.697790 61.315148 -5.162438 -7.783153 10.453474 14.858668 18.894938 -5.263318 2.789325 0.375041 0.000000 0.000000 0.000000 -14.004423 -49.420746 -11.826880 11.819970 1.001008 -0.548145 4.542036 12.751382 -1.421145 0.949869 -4.132467 0.781358 0.000000 0.000000 0.000000 3.178557 12.767747 -1.850251 -3.822431 -2.206500 1.221270 5.497092 -41.501913 5.830789 0.000000 0.000000 0.000000 3.700972 12.449138 -2.020353 -6.539457 -23.818816 -26.564525 -2.175651 3.785282 -8.320033 -23.938316 15.320335 -41.325499 -1.956240 -42.211604 -1.772511 0.000000 0.000000 0.000000 1.461035 12.619856 -1.857403 19.048252 -23.961386 24.078099 0.598415 2.606787 0.652673 19.180585 -25.339701 43.463926 -179.125331 70.605974 177.316055 0.000000 0.000000 0.000000 
51.871307 93.324089 38.366898 0.000000 0.000000 0.000000 -13.945952 -48.816885 -13.294026 -10.310461 7.452290 2.427233 38.710162 -10.409384 0.993258 -24.908474 3.994044 10.681852 -6.132452 -0.101129 2.645080 0.000000 0.000000 0.000000 -12.769297 -45.503776 -12.127604 -33.436836 18.765764 0.872717 60.592999 -4.501314 -6.456726 8.968043 16.287073 18.608775 -3.395567 3.355512 -3.268220 0.000000 0.000000 0.000000 -12.061679 -46.961922 -10.535479 12.115360 -1.049485 -0.051348 4.510111 12.248769 -1.395017 0.893361 -4.412438 0.942475 0.000000 0.000000 0.000000 3.129361 12.308984 -1.763219 -3.910064 -2.156815 1.808393 6.201107 -42.016708 6.562378 0.000000 0.000000 0.000000 3.585339 12.023528 -2.045041 -6.895276 -25.954956 -26.046916 -2.062077 3.949372 -8.554949 -24.341117 12.664205 -41.484728 -1.791987 -44.779943 -1.658526 0.000000 0.000000 0.000000 1.471886 12.188524 -1.934259 19.096533 -23.929467 24.641601 0.666955 2.653233 0.688426 17.149792 -24.886568 42.402077 -178.555953 71.677842 176.847559 0.000000 0.000000 0.000000 
51.705292 93.903603 40.972233 0.000000 0.000000 0.000000 -11.726649 -46.403547 -11.968659 -8.135924 7.633252 2.708896 36.541092 -10.576609 -0.391388 -24.206397 0.875076 12.043351 -6.366734 -0.208100 3.383678 0.000000 0.000000 0.000000 -11.257809 -43.479243 -11.340517 -36.519420 18.368090 2.512746 55.119125 -4.110367 -5.129205 9.958295 15.930713 18.841242 -4.641933 3.166189 -5.125198 0.000000 0.000000 0.000000 -10.029094 -44.561698 -9.416717 12.344712 -2.878122 0.701066 4.469984 11.759848 -1.380848 0.961112 -4.591167 1.031806 0.000000 0.000000 0.000000 3.068248 11.867753 -1.700189 -3.967047 -2.147286 2.380190 6.899378 -42.629683 7.430415 0.000000 0.000000 0.000000 3.450806 11.611964 -2.097968 -7.174841 -28.213076 -25.303568 -2.092322 4.099649 -8.895955 -24.720948 10.218415 -41.674894 -1.833655 -47.764360 -1.680582 0.000000 0.000000 0.000000 1.485074 11.776701 -2.037141 19.166307 -23.913843 25.133337 0.887461 2.696093 0.776551 14.296879 -23.540571 41.030592 -177.994101 72.611379 176.427666 0.000000 0.000000 0.000000 
